<svg width="39" height="39" viewBox="0 0 39 39" fill="none" xmlns="http://www.w3.org/2000/svg">
<g clip-path="url(#clip0_11_144)" filter="url(#filter0_d_11_144)">
<path d="M32.2877 0L15.4314 18.5516L10.5392 14.8219H7.82672L15.4314 27.1734L35.0002 0H32.2877Z" fill="#83BF4F"/>
<path d="M30.1078 27.1736C30.1078 27.4642 29.8656 27.7064 29.575 27.7064H7.82656C7.53594 27.7064 7.29375 27.4642 7.29375 27.1736V5.42516C7.29375 5.13453 7.53594 4.89235 7.82656 4.89235H22.6969L25.6516 1.64703H5.06563C4.48438 1.64703 4 2.13141 4 2.71266V29.8861C4 30.5158 4.48438 31.0002 5.06563 31.0002H32.2391C32.8203 31.0002 33.3047 30.5158 33.3047 29.9345V8.76735L30.0594 13.3205C30.1078 13.3205 30.1078 27.1736 30.1078 27.1736Z" fill="#3E4347"/>
</g>
<defs>
<filter id="filter0_d_11_144" x="0" y="0" width="39" height="39" filterUnits="userSpaceOnUse" color-interpolation-filters="sRGB">
<feFlood flood-opacity="0" result="BackgroundImageFix"/>
<feColorMatrix in="SourceAlpha" type="matrix" values="0 0 0 0 0 0 0 0 0 0 0 0 0 0 0 0 0 0 127 0" result="hardAlpha"/>
<feOffset dy="4"/>
<feGaussianBlur stdDeviation="2"/>
<feComposite in2="hardAlpha" operator="out"/>
<feColorMatrix type="matrix" values="0 0 0 0 0 0 0 0 0 0 0 0 0 0 0 0 0 0 0.25 0"/>
<feBlend mode="normal" in2="BackgroundImageFix" result="effect1_dropShadow_11_144"/>
<feBlend mode="normal" in="SourceGraphic" in2="effect1_dropShadow_11_144" result="shape"/>
</filter>
<clipPath id="clip0_11_144">
<rect width="31" height="31" fill="white" transform="translate(4)"/>
</clipPath>
</defs>
</svg>
