<svg width="82" height="61" viewBox="0 0 82 61" fill="none" xmlns="http://www.w3.org/2000/svg">
<path d="M78.0098 59.9677C80.2135 59.9677 81.9999 58.1812 81.9999 55.9776C81.9999 53.7739 80.2135 51.9874 78.0098 51.9874C75.8061 51.9874 74.0197 53.7739 74.0197 55.9776C74.0197 58.1812 75.8061 59.9677 78.0098 59.9677Z" fill="white"/>
<path d="M12.4908 5.66714L23.3625 26.0804H28.2779C24.2299 18.9097 13.6474 0 13.6474 0L0 26.0804H1.73484L12.4908 5.66714Z" fill="white"/>
<path d="M37.4725 1.73494H40.653C44.4697 1.73494 47.1298 2.60236 48.6911 4.27937C50.1946 5.95638 50.9464 7.74904 50.9464 9.65736C50.9464 11.6235 50.1947 13.1849 48.6333 14.3993C47.1876 15.498 44.0649 16.8859 44.0649 16.8859L47.9394 21.6277C47.9394 21.6277 47.9394 21.6856 47.9972 21.6856C49.4429 23.3626 50.7151 24.8083 51.8138 26.0227H57.0762C56.6135 25.56 56.1509 25.0974 55.6883 24.577C53.1439 21.7434 51.5247 19.8929 50.9464 19.0833L48.2285 15.7293C50.3681 14.7462 52.0451 13.5318 53.2595 12.144C54.4161 10.7561 55.0522 9.25257 55.0522 7.69121C55.0522 6.30334 54.7052 5.14679 54.0691 4.22154C53.3752 3.29629 52.3921 2.54453 51.1199 1.96625C49.7899 1.38797 48.5176 1.09883 47.3033 0.983176C46.031 0.86752 44.0649 0.809692 41.2313 0.809692H30.244V1.09883C31.5741 1.09883 32.3837 1.38797 32.615 1.90842C32.9041 2.42887 33.0198 3.06498 33.0198 3.87457V25.9648H37.4725V1.73494Z" fill="white"/>
<path d="M41.2892 43.2553C41.4627 45.5685 41.1157 47.6503 40.3061 49.5008C38.8026 52.8548 35.969 55.2257 31.8054 56.6136C27.6418 58.0015 23.6517 57.828 19.7772 56.0931C16.7702 54.7053 14.6884 52.5078 13.6475 49.3273C12.6066 46.2046 12.6644 43.2553 13.8788 40.5374C14.3992 39.323 15.2088 38.1665 16.3075 37.0677H13.7053C13.6475 37.1834 13.5896 37.2412 13.5896 37.3569C12.1439 40.5953 11.6813 43.718 12.2018 46.725C12.7222 49.7899 13.9366 52.45 15.8449 54.7053C17.8111 56.9606 19.9507 58.6376 22.2638 59.6785C25.7335 61.2398 29.261 61.3555 32.7885 60.0833C36.3738 58.7532 38.9761 56.2088 40.7109 52.45C42.7927 47.7659 42.9662 43.3132 41.1736 39.1496C40.8844 38.4556 40.5375 37.7617 40.1327 37.1256H39.0918C40.364 38.9182 41.1157 41.0001 41.2892 43.2553Z" fill="white"/>
<path d="M62.8589 43.2554C66.3865 41.8097 68.1213 39.7857 68.1213 37.2413C68.1213 37.1834 68.1213 37.1256 68.1213 37.1256H63.6685C63.6685 37.2991 63.6685 37.4148 63.6685 37.5882C63.6685 38.9761 63.0903 40.4218 61.9337 41.8097C60.9506 43.0241 59.158 43.718 56.5557 43.8915C56.5557 44.1228 56.5557 44.3541 56.4979 44.6432C58.7532 44.7011 60.4302 44.8167 61.5289 45.048C63.0324 45.3372 64.4203 46.2046 65.6347 47.5925C66.8491 48.9803 67.4274 50.773 67.4274 52.9705C67.4274 55.1101 66.7334 56.6714 65.4034 57.7702C64.0155 58.8689 61.7024 59.3894 58.4062 59.3894C56.2666 59.3894 54.6474 59.2737 53.5487 58.9846C52.3921 58.6954 51.5825 58.3485 51.1199 57.9437C50.5994 57.481 50.3103 57.0762 50.1368 56.6714C50.0211 56.2667 49.9055 55.3992 49.9055 54.127V37.1834H45.0479V56.3823C45.0479 57.9437 44.8745 58.8689 44.5275 59.2737C44.1805 59.6207 43.3131 59.852 42.0409 59.852V60.1411H58.3484C61.4132 60.1411 63.842 59.9098 65.519 59.3894C67.2539 58.8689 68.7574 57.828 70.0874 56.3245C71.4175 54.7631 72.0536 53.0283 72.0536 51.1778C72.0536 49.1538 71.3018 47.419 69.7405 46.0311C68.1791 44.5276 65.9238 43.6602 62.8589 43.2554Z" fill="white"/>
<path d="M5.8985 33.1931C5.95633 33.1931 5.95632 33.1931 5.95632 33.251L6.18764 33.4823C6.01415 33.6558 5.84067 33.8292 5.60936 33.9449C5.37805 34.0606 5.08891 34.1184 4.74194 34.1184C4.4528 34.1184 4.16366 34.0606 3.93235 33.9449C3.70104 33.8292 3.46972 33.7136 3.35407 33.5401C3.18058 33.3666 3.06493 33.1353 2.94927 32.904C2.83362 32.6727 2.83362 32.3836 2.83362 32.0944C2.83362 31.8053 2.89144 31.5161 2.94927 31.2848C3.06493 31.0535 3.18058 30.8222 3.35407 30.6487C3.52755 30.4752 3.75886 30.3017 3.99018 30.2439C4.22149 30.1283 4.51063 30.0704 4.79977 30.0704C5.08891 30.0704 5.32022 30.1283 5.55153 30.1861C5.78284 30.3017 5.95632 30.4174 6.12981 30.5331L5.95632 30.8222L5.8985 30.88H5.84067C5.78284 30.88 5.78284 30.88 5.72501 30.8222C5.66719 30.7644 5.60936 30.7644 5.55153 30.7065C5.4937 30.6487 5.37805 30.6487 5.26239 30.5909C5.14673 30.5331 5.03108 30.5331 4.8576 30.5331C4.68411 30.5331 4.4528 30.5909 4.33714 30.6487C4.16366 30.7065 4.048 30.8222 3.93235 30.9379C3.81669 31.0535 3.70104 31.227 3.64321 31.4005C3.58538 31.574 3.52755 31.8053 3.52755 32.0366C3.52755 32.2679 3.58538 32.4992 3.64321 32.6727C3.70104 32.8462 3.81669 33.0197 3.93235 33.1353C4.048 33.251 4.22149 33.3666 4.33714 33.4245C4.51063 33.4823 4.68411 33.5401 4.8576 33.5401C4.97325 33.5401 5.08891 33.5401 5.14674 33.5401C5.26239 33.5401 5.32022 33.4823 5.37805 33.4823C5.43587 33.4823 5.55153 33.4245 5.60936 33.3666C5.66719 33.3088 5.72501 33.251 5.84067 33.1931C5.84067 33.251 5.84067 33.1931 5.8985 33.1931Z" fill="white"/>
<path d="M13.0112 32.0367C13.0112 32.3258 12.9534 32.615 12.8956 32.8463C12.7799 33.0776 12.6643 33.3089 12.4908 33.4824C12.3173 33.6559 12.086 33.8293 11.8547 33.8872C11.6234 34.0028 11.3342 34.0606 11.0451 34.0606C10.756 34.0606 10.4668 34.0028 10.2355 33.8872C10.0042 33.7715 9.77288 33.6559 9.5994 33.4824C9.42591 33.3089 9.31026 33.0776 9.1946 32.8463C9.07895 32.615 9.02112 32.3258 9.02112 32.0367C9.02112 31.7475 9.07895 31.4584 9.1946 31.2271C9.31026 30.9958 9.42591 30.7645 9.5994 30.591C9.77288 30.4175 10.0042 30.244 10.2355 30.1862C10.4668 30.0705 10.756 30.0127 11.0451 30.0127C11.3342 30.0127 11.6234 30.0705 11.8547 30.1862C12.086 30.3018 12.3173 30.4175 12.4908 30.591C12.6643 30.7645 12.7799 30.9958 12.8956 31.2271C12.9534 31.4584 13.0112 31.7475 13.0112 32.0367ZM12.3751 32.0367C12.3751 31.8054 12.3173 31.5741 12.2595 31.4006C12.2017 31.2271 12.086 31.0536 11.9703 30.9379C11.8547 30.8223 11.6812 30.7066 11.5077 30.6488C11.3342 30.591 11.1608 30.5331 10.9294 30.5331C10.6981 30.5331 10.5246 30.591 10.3512 30.6488C10.1777 30.7066 10.062 30.8223 9.88854 30.9379C9.71505 31.0536 9.65723 31.2271 9.5994 31.4006C9.54157 31.5741 9.48374 31.8054 9.48374 32.0367C9.48374 32.268 9.54157 32.4993 9.5994 32.6728C9.65723 32.8463 9.77288 33.0197 9.88854 33.1354C10.0042 33.2511 10.1777 33.3667 10.3512 33.4245C10.5246 33.4824 10.6981 33.5402 10.9294 33.5402C11.1608 33.5402 11.3342 33.4824 11.5077 33.4245C11.6812 33.3667 11.7969 33.2511 11.9703 33.1354C12.1438 33.0197 12.2017 32.8463 12.2595 32.6728C12.3173 32.4993 12.3751 32.268 12.3751 32.0367Z" fill="white"/>
<path d="M19.5458 30.0127V34.0028H19.2567C19.1989 34.0028 19.1989 34.0028 19.141 34.0028C19.0832 34.0028 19.0832 33.945 19.0254 33.945L16.7701 30.9958C16.7701 31.0536 16.7701 31.1114 16.7701 31.1693C16.7701 31.2271 16.7701 31.2849 16.7701 31.2849V34.0606H16.2496V30.0705H16.5388C16.5966 30.0705 16.6544 30.0705 16.6544 30.0705C16.6544 30.0705 16.7123 30.1283 16.7701 30.1283L19.0254 33.0776C19.0254 33.0197 19.0254 32.9619 19.0254 32.9041C19.0254 32.8463 19.0254 32.7884 19.0254 32.7884V30.0705H19.5458V30.0127Z" fill="white"/>
<path d="M25.7334 30.5331H24.4612V34.0606H23.8829V30.5331H22.6107V30.0127H25.7334V30.5331Z" fill="white"/>
<path d="M31.7475 34.0606H31.2848C31.227 34.0606 31.1692 34.0606 31.1692 34.0027C31.1114 34.0027 31.1114 33.9449 31.1114 33.8871L30.7644 32.9618H28.9717L28.6248 33.8871C28.6248 33.9449 28.5669 33.9449 28.5669 34.0027C28.5091 34.0027 28.5091 34.0606 28.4513 34.0606H27.9886L29.6078 30.0704H30.1861L31.7475 34.0606ZM30.5909 32.557L30.0126 30.9957C29.9548 30.88 29.9548 30.7644 29.897 30.5909C29.897 30.6487 29.8391 30.7644 29.8391 30.8222C29.8391 30.88 29.7813 30.9379 29.7813 30.9957L29.203 32.557H30.5909Z" fill="white"/>
<path d="M38.2821 32.0366C38.2821 32.3257 38.2242 32.6149 38.1664 32.8462C38.1086 33.0775 37.9351 33.3088 37.7616 33.4823C37.5881 33.6558 37.3568 33.7714 37.1255 33.8871C36.8942 34.0027 36.605 34.0606 36.3159 34.0606H34.8124V30.0704H36.3159C36.605 30.0704 36.8942 30.1283 37.1255 30.2439C37.3568 30.3596 37.5881 30.4752 37.7616 30.6487C37.9351 30.8222 38.0507 31.0535 38.1664 31.2848C38.2242 31.4583 38.2821 31.7474 38.2821 32.0366ZM37.6459 32.0366C37.6459 31.8053 37.5881 31.574 37.5303 31.4005C37.4725 31.227 37.3568 31.0535 37.2412 30.9379C37.1255 30.8222 36.952 30.7065 36.7785 30.6487C36.605 30.5909 36.4316 30.5331 36.2002 30.5331H35.275V33.5979H36.2002C36.4316 33.5979 36.605 33.5401 36.7785 33.4823C36.952 33.4245 37.0677 33.3088 37.2412 33.1931C37.3568 33.0775 37.4725 32.904 37.5303 32.7305C37.6459 32.4992 37.6459 32.2679 37.6459 32.0366Z" fill="white"/>
<path d="M45.2793 32.0367C45.2793 32.3258 45.2215 32.615 45.1637 32.8463C45.048 33.0776 44.9323 33.3089 44.7589 33.4824C44.5854 33.6559 44.3541 33.8293 44.1228 33.8872C43.8914 34.0028 43.6023 34.0606 43.3132 34.0606C43.024 34.0606 42.7349 34.0028 42.5036 33.8872C42.2723 33.7715 42.0409 33.6559 41.8675 33.4824C41.694 33.3089 41.5783 33.0776 41.4627 32.8463C41.347 32.615 41.2892 32.3258 41.2892 32.0367C41.2892 31.7475 41.347 31.4584 41.4627 31.2271C41.5783 30.9958 41.694 30.7645 41.8675 30.591C42.0409 30.4175 42.2723 30.244 42.5036 30.1862C42.7349 30.0705 43.024 30.0127 43.3132 30.0127C43.6023 30.0127 43.8914 30.0705 44.1228 30.1862C44.3541 30.3018 44.5854 30.4175 44.7589 30.591C44.9323 30.7645 45.048 30.9958 45.1637 31.2271C45.2215 31.4584 45.2793 31.7475 45.2793 32.0367ZM44.6432 32.0367C44.6432 31.8054 44.5854 31.5741 44.5275 31.4006C44.4697 31.2271 44.3541 31.0536 44.2384 30.9379C44.1228 30.8223 43.9493 30.7066 43.7758 30.6488C43.6023 30.591 43.4288 30.5331 43.1975 30.5331C42.9662 30.5331 42.7927 30.591 42.6192 30.6488C42.4457 30.7066 42.3301 30.8223 42.1566 30.9379C41.9831 31.0536 41.9253 31.2271 41.8675 31.4006C41.8096 31.5741 41.7518 31.8054 41.7518 32.0367C41.7518 32.268 41.8096 32.4993 41.8675 32.6728C41.9253 32.8463 42.0409 33.0197 42.1566 33.1354C42.2723 33.2511 42.4457 33.3667 42.6192 33.4245C42.7927 33.4824 42.9662 33.5402 43.1975 33.5402C43.4288 33.5402 43.6023 33.4824 43.7758 33.4245C43.9493 33.3667 44.0649 33.2511 44.2384 33.1354C44.3541 33.0197 44.4697 32.8463 44.5275 32.6728C44.6432 32.4993 44.6432 32.268 44.6432 32.0367Z" fill="white"/>
<path d="M51.5246 34.0606H51.0042C50.8885 34.0606 50.8307 34.0028 50.7729 33.945L49.7898 32.5571C49.732 32.4993 49.732 32.4993 49.6741 32.4415C49.6163 32.4415 49.5585 32.3836 49.5007 32.3836H49.0959V34.0028H48.5176V30.0127H49.6741C49.9054 30.0127 50.1368 30.0127 50.3681 30.0705C50.5416 30.1284 50.715 30.1862 50.8307 30.3018C50.9464 30.4175 51.062 30.5331 51.1198 30.6488C51.1777 30.7645 51.2355 30.9379 51.2355 31.1114C51.2355 31.2271 51.2355 31.4006 51.1777 31.5162C51.1198 31.6319 51.062 31.7475 51.0042 31.8632C50.9464 31.9788 50.8307 32.0367 50.715 32.0945C50.5994 32.1523 50.4837 32.2102 50.3102 32.268C50.3681 32.3258 50.4259 32.3836 50.4837 32.4415L51.5246 34.0606ZM49.6163 31.9788C49.7898 31.9788 49.9055 31.9788 50.0211 31.921C50.1368 31.8632 50.2524 31.8054 50.3102 31.7475C50.3681 31.6897 50.4259 31.574 50.4837 31.5162C50.5416 31.4006 50.5416 31.3427 50.5416 31.2271C50.5416 30.9958 50.4837 30.8223 50.3102 30.7066C50.1368 30.591 49.9055 30.5331 49.6163 30.5331H49.038V31.9788H49.6163Z" fill="white"/>
<path d="M57.0185 33.5979V34.0606H54.5319V30.0704H57.0185V30.5331H55.1101V31.8053H56.6137V32.2679H55.1101V33.5979H57.0185Z" fill="white"/>
<path d="M62.3386 30.7066C62.3386 30.7644 62.2807 30.7644 62.2807 30.7644H62.2229C62.1651 30.7644 62.1651 30.7644 62.1072 30.7066C62.0494 30.6487 61.9916 30.6487 61.9338 30.5909C61.8759 30.5331 61.8181 30.5331 61.7025 30.4753C61.5868 30.4174 61.529 30.4174 61.3555 30.4174C61.2398 30.4174 61.1242 30.4174 61.0663 30.4753C61.0085 30.5331 60.8929 30.5331 60.835 30.5909C60.7772 30.6487 60.7194 30.7066 60.7194 30.7644C60.6615 30.8222 60.6615 30.9379 60.6615 30.9957C60.6615 31.1114 60.6615 31.1692 60.7194 31.2848C60.7772 31.3427 60.835 31.4005 60.9507 31.4583C61.0663 31.5162 61.1242 31.574 61.2398 31.574C61.3555 31.6318 61.4711 31.6318 61.5868 31.6896C61.7025 31.7475 61.8181 31.7475 61.9338 31.8053C62.0494 31.8631 62.1651 31.921 62.2229 31.9788C62.3386 32.0366 62.3964 32.1523 62.4542 32.2679C62.512 32.3836 62.512 32.4992 62.512 32.6727C62.512 32.8462 62.4542 33.0197 62.3964 33.1932C62.3386 33.3667 62.2229 33.4823 62.1072 33.598C61.9916 33.7136 61.8759 33.8293 61.7025 33.8871C61.529 33.9449 61.3555 34.0028 61.1242 34.0028C61.0085 34.0028 60.8929 34.0028 60.7772 33.9449C60.6616 33.9449 60.5459 33.8871 60.4302 33.8293C60.3146 33.7714 60.1989 33.7136 60.1411 33.6558C60.0254 33.598 59.9676 33.5401 59.9098 33.4245L60.0833 33.1353L60.1411 33.0775H60.1989C60.2568 33.0775 60.2568 33.0775 60.3146 33.1353C60.3724 33.1932 60.4302 33.1932 60.4881 33.251C60.5459 33.3088 60.6616 33.3666 60.7772 33.3666C60.8929 33.4245 61.0085 33.4245 61.182 33.4245C61.2977 33.4245 61.4133 33.4245 61.529 33.3666C61.6446 33.3088 61.7025 33.3088 61.7603 33.251C61.8181 33.1932 61.8759 33.1353 61.9338 33.0197C61.9916 32.9619 61.9916 32.8462 61.9916 32.7305C61.9916 32.6149 61.9916 32.4992 61.9338 32.4414C61.8759 32.3836 61.8181 32.3257 61.7025 32.2679C61.5868 32.2101 61.529 32.1523 61.4133 32.1523C61.2977 32.0944 61.182 32.0944 61.0663 32.0366C60.9507 31.9788 60.835 31.9788 60.7194 31.921C60.6037 31.8631 60.4881 31.8053 60.4302 31.7475C60.3146 31.6896 60.2568 31.574 60.1989 31.4583C60.1411 31.3427 60.1411 31.1692 60.1411 30.9957C60.1411 30.88 60.1411 30.7066 60.1989 30.5909C60.2568 30.4753 60.3146 30.3596 60.4302 30.2439C60.5459 30.1283 60.6615 30.0705 60.835 30.0126C61.0085 29.9548 61.182 29.897 61.3555 29.897C61.5868 29.897 61.7603 29.9548 61.9916 30.0126C62.1651 30.0705 62.3386 30.1861 62.512 30.3018L62.3386 30.7066Z" fill="white"/>
</svg>
